<svg xmlns="http://www.w3.org/2000/svg" width="24" height="24" fill="none" viewBox="0 0 24 24"><path fill="#545454" d="M9.74996 1.5C9.74996 0.670312 10.4203 0 11.25 0H12.75C13.5796 0 14.25 0.670312 14.25 1.5V8.10469L19.9687 4.80469C20.6859 4.39219 21.6046 4.63594 22.0171 5.35312L22.7671 6.65156C23.1796 7.36875 22.9359 8.2875 22.2187 8.7L16.5 12L22.2187 15.3C22.9359 15.7125 23.1796 16.6313 22.7671 17.3484L22.0171 18.6469C21.6046 19.3641 20.6859 19.6125 19.9687 19.1953L14.25 15.8953V22.5C14.25 23.3297 13.5796 24 12.75 24H11.25C10.4203 24 9.74996 23.3297 9.74996 22.5V15.8953L4.03121 19.2C3.31402 19.6125 2.39527 19.3687 1.98277 18.6516L1.23278 17.3531C0.820275 16.6359 1.06403 15.7172 1.78121 15.3047L7.49996 12L1.78121 8.7C1.06403 8.2875 0.820275 7.36875 1.23278 6.65156L1.98277 5.35312C2.39527 4.63125 3.31402 4.3875 4.03121 4.8L9.74996 8.1V1.5Z"/></svg>